<?xml version="1.0" encoding="UTF-8"?>
<svg id="Layer_1" data-name="Layer 1" xmlns="http://www.w3.org/2000/svg" viewBox="0 0 200 80">
  <defs>
    <style>
      .cls-1 {
        fill: #fff;
      }

      .cls-2 {
        fill: #e96534;
      }

      .cls-3 {
        fill: #a89989;
      }

      .cls-4 {
        fill: #d8d0b0;
      }
    </style>
  </defs>
  <rect class="cls-1" width="200" height="80"/>
  <g>
    <path class="cls-4" d="M139.2,14.32c-.53-.4-2.46,1.32-3.43,2.11-.09-.01-.17-.02-.25-.03.05.04.1.07.15.11-.24.2-.41.32-.45.29.89.67,1.71,1.37,2,2.35-.02-.02-.04-.06-.07-.07.05.26.13.59.17.93,0,.08,0,.16,0,.24-.03.3-.11.55-.23.77.12-.35.13-.69-.04-.96.01.3-.05.62-.22.85.15-.34.07-1.03-.13-1.18.19.71.02,1.26-.64,1.66-.53.32-1.16.44-1.8.67.78-.27,1.76-.73,1.85-1.15-.19.13-.46.29-.76.43l.04-.09-.49.15s-.02-.02-.03-.04h0s-.14.01-.14.01c-.79.17-1.77.46-2.52.68-1.68.57-3.21.35-4.9.68-2.13.5-4.29.14-6.55.28-4.15.28-8.52.29-12.54-1-1.88-.74-3.68-1.21-5.07-2.39-1.49-1.08-2.53-2.64-1.63-3.04.44-.38,1.46-.77,2.44-1.63.13-.17.07,0,.34-.46.29-.8.04-1.5-.75-1.77-1.3-.13-.82.07-1.21.11-.3.12-.54.24-.77.36-.45.23-.9.49-1.3.72-1.69,1.06-3.58,1.89-4.98,4.4-.94,1.53-.22,4.13.95,5.16,1.11,1.24,2.31,1.83,3.49,2.51,2.42,1.22,5.04,2.01,7.52,2.31,3.69.63,10.76.9,13.84.16-4.11.39-8.31.16-12.35-.51,8.68.63,18.18.71,26.11-3.51-7.4,3.88-15.94,3.92-23.69,3.23-3.93-.4-7.92-1.35-11.25-3.43-1.41-.81-3.1-2.13-3.25-3.81.16.91.85,1.84,2.33,2.78,1.31.83,2.77,1.46,4.31,1.95,4.12,1.54,8.74,1.91,13.22,2.05,4.85.14,9.86-.2,14.36-1.77.47-.18.95-.37,1.44-.57.48-.12.97-.24,1.46-.37,1.02-.39,2.63-.39,4.26-2,.33-.46.53-.92.65-1.35.26-.24.5-.5.73-.76,1.91-1.69,2.79-3.76-.21-6.01ZM102.11,13.2c-.16-.14.02-.03,0,0h0ZM120.59,26.91c-3.12.03-6.27-.05-9.35-.41,2.4.16,4.76.17,6.93.15,3.09-.03,6.27-.28,9.35-.93.89-.1,1.79-.23,2.68-.39.36-.09.76-.18,1.16-.28-3.39,1.2-7.1,1.75-10.77,1.86Z"/>
    <path class="cls-3" d="M59.82,37.25l-.06.02s.05,0,.06-.02ZM122.98,15.18c-2.63-2.8-6.36-3.76-9.8-4.17-1.02-.15-2.05-.17-3.09-.22h-1.57c-.54-.08-2.01.42-2.37.76-1.02.65-2.09,1.65-2.28,1.74.11-.08.26-.13.4-.14h.11s.05,0,.05,0h.01c.53,8.12.15,2.25.27,4.06h.45s.71,0,.71,0l1.44.06c3.78.22,7.98,1.24,9.81,3.3,1.39,1.46,1.32,4.53-2.18,6.78-3.01,2.25-7.16,3.66-9.29,4.73,3.02-1.17,6.3-2.41,8.9-4.07,2.69-1.79,4.53-3.88,3.78-6.37.99,2.65-1.28,5.19-4.22,7.06-2.97,1.74-6.39,3.16-9.86,4.22-6.97,2.2-14.17,3.73-21.21,4.36,6.61-.52,13.16-1.9,19.56-3.69,6.01-1.98,13.33-3.96,16.13-9,1.1-2.53-.38-5.53-3.2-6.8-2.73-1.4-5.98-1.97-9.13-2.17l-1.15-.04c.23-.15.43-.3.61-.45,1.13-.01,2.43.04,3.78.2.15.02.31.04.46.05.14.02.29.04.44.06,3.7.7,8.43,2.22,9.22,6.31.34,1.63-.11,3.07-.98,4.32-3.12,2.67-6.83,4.71-10.76,6.36-13.03,4.69-27.08,7.18-39.09,4.51-1.14-.41-2.23-.95-3.21-1.66-.69-.5-1.21-1.16-1.64-1.89-.3-.51-.36-1.08-.42-1.65,0-.35.04-.69.13-1.02,1.3-.99,2.7-1.68,3.16-2.11-.49.12-.99.27-1.49.47.56-.47,1.05-.88,1.37-.95-1.48.35-3.28,1.1-4.72,2.19,0-.02.02-.03.03-.04-.3.19-.6.46-.87.76-.51.5-.93,1.05-1.22,1.65.15-.54.39-1.04.67-1.42-.39.47-.76.98-.99,1.54.12-.79,1.09-1.94,1.29-2.3-1.11,1.09-1.97,2.44-1.83,4.24.19,1.44,1.07,2.46,2.06,3.19-1.31-.7-2.61-2.78-2.37-4.1-.19.82.04,1.7.42,2.44-.08-.07-.11-.12-.14-.13.16.32.43.72.65,1.03-.01.01-.01.04-.01.06h.01s.16.24.16.24c1.19,1.34,2.73,2.06,4.16,2.58,3.07.96,5.66,1.86,8.78,1.82,3.86-.02,7.59.04,11.56-.44,7.23-1.13,14.43-3.17,21.42-5.48,6.54-2.27,12.66-5.42,17.28-10.47,2.82-2.47,2.75-7.86-.21-10.32ZM108.34,12.69c-.86.05-1.97,1.13-2.8,1.86h-.57c.58-.41,1.16-.92,1.8-1.35,1.11-.86,2.44-.69,3.69-.58-.73,0-1.45.03-2.12.08ZM91.68,37.22c-1.97.36-3.98.69-6.01.95-3.97.34-7.96.34-11.83-.14,3.07.25,6.21.25,9.37.03,5.63-.42,11.36-1.44,17.04-2.88-2.82.8-5.7,1.49-8.58,2.03ZM120.21,23.46c-.04.62-.2,1.21-.46,1.79-.02.02-.05.04-.07.06.42-1.03.59-2.17.46-3.28.07.45.1.93.06,1.43Z"/>
    <path class="cls-2" d="M80.5,27.54v.06s.01-.04,0-.06ZM130.1,64.39l-.04-2.6c.03-1.76-.36-3.53-.55-5.34-.58-3.58-1.73-7.1-3.14-10.35-1.81-4.9-8.43-13.38-12.52-15.43,4.82,3.49,8.71,8.64,11.09,13.89-5.64-11.38-17.68-19.97-30.05-21,11.49,1.18,22.35,8.3,27.98,18.26,2.84,4.94,4.52,10.38,5.17,15.77.35,2.46.33,4.93.28,7.34-.1-4.16-.71-8.25-1.85-12.14-1.54-5.99-4.47-11.86-8.77-16.65-8.32-9.88-21.75-13.21-32.66-12.1-3.79.14-7.56.67-11.22,1.53-.45.11-.96.42-1.45.79-1.16.38-2.02.79-2.43,1.22.41-.08.83-.17,1.25-.26-.46.38-.86.68-1.13.75,1.44-.34,2.89-.62,4.35-.84-.03.02-.08.04-.1.06.32-.05.69-.13,1.06-.2.54-.07,1.09-.14,1.64-.2-.47.13-.91.27-1.28.42l1.45-.16c-.58.19-1.71.37-1.99.55,1.21-.15,2.26-.41,3.52-.48,1.02-.08,1.94-.12,2.92-.2-1.17.11-2.73.34-3.51.6.54,0,1.1-.06,1.66-.13-.07.03-.11.06-.12.08.25-.02.57-.02.82-.04,0,.02.02.03.03.04h0s.21.02.21.02c1.24,0,2.49-.08,3.68-.1,2.54-.07,4.59.63,7.01.9,3.08.34,5.88,1.58,8.84,2.69,5.47,2,10.76,5.49,14.35,10.27,3.37,4.5,5.6,9.46,6.93,14.56.7,2.55,1.01,5.17,1.28,7.79l.06,3.96v.5s0,.01,0,.01h0c-1.49.02-.22.01,1.11,0,.13,0,.26,0,.4,0h0s0,0,0,0h.31c.8,0,1.43-.01,1.21,0v.14s-.03.31-.03.31c-.06.21-.2.41-.34.53-.24.17,0,.02-.01.05.1-.05.5-.19.77-.29.67-.26,1.31-.44,2.14-.89.39-.36,1.25-.35,1.68-2.25.02-.56,0-.88,0-1.35ZM112.59,32.06c-7.18-5.54-15.91-7.92-24.76-8.06,8.72-.25,18.15,2.05,25.49,8.26,3.12,2.58,5.77,5.68,7.88,9.07-2.31-3.47-5.17-6.61-8.61-9.27Z"/>
  </g>
</svg>