<?xml version="1.0" encoding="UTF-8"?>
<svg id="Layer_1" xmlns="http://www.w3.org/2000/svg" version="1.1" viewBox="0 0 200 80">
  <!-- Generator: Adobe Illustrator 29.5.1, SVG Export Plug-In . SVG Version: 2.1.0 Build 141)  -->
  <defs>
    <style>
      .st0 {
        fill: #fa94d6;
        stroke: #000;
        stroke-linecap: round;
        stroke-linejoin: round;
        stroke-width: .5px;
      }
    </style>
  </defs>
  <g id="_로고" data-name="로고">
    <path class="st0" d="M134.13,26.53c-.18,0-.4,3.13-1.94,2.76-.76-.18-1.42-2.01-.84-2.75l-18.63-.04-1.71,3.89-1.39-3.85h-17.83l.24,6.64h-2.47s.56-6.64.56-6.64h-8.36c.91,6.37.91,13.52,0,19.88h8.36l-.28-8.29h1.95c-.16,2.81.79,5.63-.55,8.29h8.92c-.02-.59-1.11-1.57-1.11-1.93v-16.02c0-.22.72-.83.56-1.38.88-.19,1.15.27,1.67.82.66.71,5.05,9.2,5.31,10.2.77,2.95.25,5.59-.85,8.3h8.92c-3.89-3.53,2.88-18.13,5.86-19.32,1.03-.41.82.61.99,1.2.77,2.69.75,13.65.15,16.5-1.17,5.59-7.87,5.97-12.47,4.56-.56-.17-5.75-3.3-5.11-1.02,1.73,6.12,15.01,7.27,19.77,3.6,1.15-.89,3.63-4.55,3.63-5.8v-10.22c1.67-.39,3.43,4.38,4.18,4.41l2.9-3.71c.36-.46-.02-1,1.28-.7v8.01c0,.43-1.49,1.52-1.11,2.49h8.92c-.91-6.36-.91-13.51,0-19.88h-9.47Z"/>
    <path class="st0" d="M55.56,26.54l.45,14.79c-.74.56-2.07.58-2.68-.14-1.25-1.48-.55-12.62,0-15.21l-8.36.28c2.03,7.49-3.39,21.28,9.21,20.74,12.12-.52,6.51-13.17,8.64-20.74l-7.25.27Z"/>
    <path class="st0" d="M153.51,26.09c-11.45.91-11.2,18.91-1.78,20.27,15.47,2.23,14.81-21.3,1.78-20.27ZM155.25,40.84c-4.18,1.63-3.68-8.07-2.21-9.09l2.21-.19c.88.58.88,8.7,0,9.28Z"/>
    <path class="st0" d="M42.74,32.05v-5.52c-3.99-.07-8,.09-12,.03-.94-.01-2.41-.62-2.75-.58-1.24.17.22,2.85.3,4.11.33,5.2.07,11.19-.58,16.32h15.05v-6.07c-2.25,1.27-4.73,1.2-7.25,1.1,0-.99-.34-2.87.92-3.27l5.21,1.06v-6.08c-10.2,2.03-6.57-4.74,1.11-1.1Z"/>
    <path class="st0" d="M80.63,32.05v-6.07s-16.72.55-16.72.55v6.08s4.46-1.66,4.46-1.66v13.53c0,.28-.88,1.16-.56,1.93h8.36c.32-.77-.56-1.66-.56-1.93v-13.53l5.01,1.1Z"/>
    <path class="st0" d="M179.26,39.79c-2.06,1.19-4.11,2.16-6.59,1.57-.08-.4-.65-1.09-.65-1.29v-9.39c0-.55,1.44-3.86,1.11-4.14h-8.92c1.91,5.96,1.62,13.9,0,19.88h14.77c1.45-1.48-.34-4.48.27-6.63Z"/>
  </g>
</svg>